<svg xmlns="http://www.w3.org/2000/svg" xmlns:xlink="http://www.w3.org/1999/xlink" width="500" zoomAndPan="magnify" viewBox="0 0 375 374.999991" height="500" preserveAspectRatio="xMidYMid meet" version="1.0"><defs><clipPath id="541837a7f5"><path d="M 155.007812 71 L 320 71 L 320 261 L 155.007812 261 Z M 155.007812 71 " clip-rule="nonzero"/></clipPath><clipPath id="00139dc911"><path d="M 287 67.9375 L 309 67.9375 L 309 97 L 287 97 Z M 287 67.9375 " clip-rule="nonzero"/></clipPath></defs><g clip-path="url(#541837a7f5)"><path fill="#000000" d="M 156.898438 255.09375 C 156.628906 251.292969 159.507812 248.214844 162.84375 246.828125 C 167.003906 245.097656 171.710938 246.199219 175.796875 247.597656 C 180.363281 249.160156 184.816406 251.074219 189.347656 252.746094 C 193.785156 254.382812 198.265625 255.914062 202.820312 257.210938 C 211.867188 259.78125 221.300781 261.410156 230.730469 260.835938 C 239.210938 260.320312 247.46875 258.046875 255.21875 254.617188 C 263.0625 251.140625 270.339844 246.492188 277.0625 241.179688 C 283.457031 236.125 289.433594 230.421875 294.121094 223.71875 C 298.578125 217.34375 301.734375 210.035156 302.441406 202.242188 C 303.101562 194.980469 301.699219 187.328125 297.730469 181.136719 C 293.351562 174.3125 286.015625 170.03125 278.164062 168.429688 C 270.367188 166.839844 261.390625 168.144531 256.554688 175.085938 C 254.511719 178.015625 253.503906 181.707031 254.238281 185.242188 C 255.03125 189.066406 257.765625 192.289062 260.597656 194.839844 C 265.546875 199.292969 271.851562 202.085938 278.40625 203.128906 C 291.519531 205.210938 305.792969 200.566406 313.554688 189.425781 C 321.085938 178.617188 321.507812 163.613281 315.730469 151.949219 C 314.261719 148.984375 312.363281 146.226562 310.089844 143.820312 C 307.382812 140.953125 304.101562 138.78125 300.785156 136.6875 C 297.152344 134.390625 293.5625 132.085938 290.597656 128.9375 C 287.972656 126.144531 285.847656 122.898438 284.273438 119.40625 C 281.132812 112.4375 280.277344 104.410156 282.226562 96.992188 C 284.117188 89.789062 288.445312 83.320312 294.246094 78.664062 C 297.050781 76.414062 300.226562 74.617188 303.605469 73.382812 C 304.59375 73.019531 304.167969 71.421875 303.164062 71.789062 C 289.554688 76.773438 279.6875 90.203125 279.53125 104.769531 C 279.457031 112.144531 281.730469 119.550781 285.871094 125.652344 C 287.980469 128.761719 290.558594 131.519531 293.539062 133.804688 C 297.011719 136.46875 300.890625 138.523438 304.429688 141.082031 C 315.238281 148.890625 319.867188 163.074219 317.367188 175.976562 C 316.136719 182.316406 313.179688 188.300781 308.519531 192.820312 C 303.789062 197.414062 297.601562 200.273438 291.136719 201.417969 C 284.699219 202.5625 277.929688 201.976562 271.796875 199.691406 C 268.75 198.550781 265.839844 196.957031 263.277344 194.945312 C 260.394531 192.675781 257.46875 189.75 256.230469 186.226562 C 254.992188 182.699219 255.878906 178.929688 257.980469 175.921875 C 260.257812 172.660156 263.78125 170.679688 267.628906 169.878906 C 271.769531 169.015625 276.121094 169.480469 280.164062 170.617188 C 284.148438 171.738281 287.992188 173.566406 291.195312 176.21875 C 296.878906 180.921875 300.035156 187.941406 300.761719 195.203125 C 301.519531 202.765625 299.792969 210.257812 296.300781 216.964844 C 292.578125 224.109375 287.164062 230.214844 281.191406 235.558594 C 274.980469 241.121094 268.132812 246.046875 260.800781 250.027344 C 253.449219 254.015625 245.527344 257.019531 237.261719 258.429688 C 228.285156 259.960938 219.128906 259.3125 210.261719 257.382812 C 201.140625 255.394531 192.339844 252.1875 183.648438 248.824219 C 176.253906 245.96875 166.871094 241.40625 159.523438 246.824219 C 156.890625 248.765625 155.007812 251.730469 155.246094 255.09375 C 155.320312 256.148438 156.976562 256.15625 156.898438 255.09375 " fill-opacity="1" fill-rule="nonzero"/></g><g clip-path="url(#00139dc911)"><path fill="#000000" d="M 288.6875 69.617188 C 291.753906 69.644531 294.820312 69.84375 297.863281 70.214844 C 299.355469 70.398438 300.84375 70.628906 302.324219 70.898438 C 303.085938 71.035156 303.84375 71.1875 304.601562 71.347656 C 304.953125 71.421875 305.300781 71.496094 305.648438 71.574219 C 305.871094 71.625 306.351562 71.644531 306.539062 71.792969 C 306.757812 71.972656 306.507812 72.542969 306.410156 72.769531 C 306.160156 73.328125 305.808594 73.847656 305.523438 74.394531 C 304.878906 75.625 304.3125 76.902344 303.824219 78.207031 C 302.859375 80.777344 302.238281 83.460938 301.929688 86.191406 C 301.578125 89.265625 301.683594 92.363281 302.191406 95.414062 C 302.265625 95.855469 302.8125 96.101562 303.210938 95.992188 C 303.675781 95.863281 303.863281 95.417969 303.789062 94.976562 C 302.859375 89.429688 303.492188 83.664062 305.503906 78.421875 C 305.996094 77.132812 306.585938 75.878906 307.253906 74.667969 C 307.820312 73.636719 308.691406 72.296875 308.058594 71.097656 C 307.742188 70.496094 307.160156 70.230469 306.523438 70.082031 C 305.742188 69.898438 304.957031 69.730469 304.167969 69.574219 C 302.621094 69.261719 301.0625 69 299.5 68.777344 C 295.917969 68.277344 292.308594 68 288.6875 67.964844 C 287.625 67.953125 287.621094 69.605469 288.6875 69.617188 " fill-opacity="1" fill-rule="nonzero"/></g></svg>